<?xml version="1.0" encoding="UTF-8" standalone="no"?>
<!-- Created with Inkscape (http://www.inkscape.org/) -->

<svg
   width="170mm"
   height="85mm"
   viewBox="0 0 169.99999 85"
   version="1.1"
   id="svg5"
   xml:space="preserve"
   inkscape:version="1.2.1 (9c6d41e410, 2022-07-14)"
   sodipodi:docname="logo.svg"
   inkscape:export-filename="logo.png"
   inkscape:export-xdpi="291.71378"
   inkscape:export-ydpi="291.71378"
   xmlns:inkscape="http://www.inkscape.org/namespaces/inkscape"
   xmlns:sodipodi="http://sodipodi.sourceforge.net/DTD/sodipodi-0.dtd"
   xmlns="http://www.w3.org/2000/svg"
   xmlns:svg="http://www.w3.org/2000/svg"><sodipodi:namedview
     id="namedview7"
     pagecolor="#ffffff"
     bordercolor="#000000"
     borderopacity="0.25"
     inkscape:showpageshadow="2"
     inkscape:pageopacity="0.0"
     inkscape:pagecheckerboard="0"
     inkscape:deskcolor="#d1d1d1"
     inkscape:document-units="mm"
     showgrid="false"
     showguides="true"
     inkscape:zoom="1.5549623"
     inkscape:cx="316.72794"
     inkscape:cy="135.69461"
     inkscape:window-width="1908"
     inkscape:window-height="1015"
     inkscape:window-x="26"
     inkscape:window-y="23"
     inkscape:window-maximized="0"
     inkscape:current-layer="g3517" /><defs
     id="defs2"><rect
       x="-104.57947"
       y="-99.507484"
       width="320.80295"
       height="258.07339"
       id="rect2784" /><style
       id="style1136">.cls-1{fill-rule:evenodd;}</style></defs><g
     inkscape:label="Layer 1"
     inkscape:groupmode="layer"
     id="layer1"
     transform="translate(-33.921888,-56.816088)"><g
       id="g3517"><g
         aria-label="   penVAF"
         transform="matrix(0.9534918,0,0,1.0487767,1.0583333,28.260521)"
         id="text113"
         style="font-size:4.97891px;fill:#354868;fill-opacity:1;stroke-width:0.414909"><path
           d="m 77.676888,59.449109 c -2.513798,0 -4.390295,0.708112 -5.664896,2.230553 V 59.76776 h -6.408414 v 26.058523 h 6.727064 v -8.568156 c 1.310007,1.345413 3.115693,2.018119 5.346246,2.018119 5.204623,0 9.41789,-3.823805 9.41789,-9.913568 0,-6.089764 -4.213267,-9.913569 -9.41789,-9.913569 z M 76.260664,73.93 c -2.265959,0 -4.036239,-1.664063 -4.036239,-4.567322 0,-2.90326 1.77028,-4.567323 4.036239,-4.567323 2.265958,0 4.036239,1.664063 4.036239,4.567323 0,2.903259 -1.770281,4.567322 -4.036239,4.567322 z"
           style="font-weight:800;font-size:35.4056px;font-family:Montserrat;-inkscape-font-specification:'Montserrat, Ultra-Bold';fill:#354868;fill-opacity:1"
           id="path3566" /><path
           d="m 109.82517,69.398083 c 0,-6.337602 -4.60273,-9.948974 -10.267629,-9.948974 -6.054358,0 -10.55087,4.10705 -10.55087,9.878163 0,5.735708 4.425701,9.948974 11.258979,9.948974 3.64678,0 6.33761,-1.062168 8.1787,-3.115693 l -3.54056,-3.682182 c -1.31001,1.132979 -2.54921,1.664063 -4.4257,1.664063 -2.478396,0 -4.142459,-1.132979 -4.708949,-3.080287 h 13.949809 c 0.0354,-0.531084 0.10622,-1.168385 0.10622,-1.664064 z M 99.592946,64.228866 c 2.088934,0 3.575964,1.274601 3.930024,3.292721 h -7.860045 c 0.389461,-2.01812 1.841091,-3.292721 3.930021,-3.292721 z"
           style="font-weight:800;font-size:35.4056px;font-family:Montserrat;-inkscape-font-specification:'Montserrat, Ultra-Bold';fill:#354868;fill-opacity:1"
           id="path3568" /><path
           d="m 125.43904,59.449109 c -2.40758,0 -4.56732,0.814329 -6.08976,2.407581 v -2.08893 h -6.40842 v 19.189836 h 6.72707 v -9.276268 c 0,-3.186504 1.66406,-4.531917 3.8238,-4.531917 1.94731,0 3.1511,1.168385 3.1511,3.930022 v 9.878163 h 6.72706 V 67.981859 c 0,-5.948141 -3.43434,-8.53275 -7.93085,-8.53275 z"
           style="font-weight:800;font-size:35.4056px;font-family:Montserrat;-inkscape-font-specification:'Montserrat, Ultra-Bold';fill:#354868;fill-opacity:1"
           id="path3570" /><path
           id="path3572"
           style="font-weight:800;font-size:35.4056px;font-family:Montserrat;-inkscape-font-specification:'Montserrat, Ultra-Bold';fill:#800000;fill-opacity:1;stroke:none"
           d="m 134.92786,54.173753 7.90052,18.427686 3.49832,-8.343507 -3.8221,-10.084179 z m 21.17262,0 -10.58626,24.783854 h 6.90416 l 10.62154,-24.783854 z"
           sodipodi:nodetypes="cccccccccc" /><path
           d="m 175.0069,61.042361 c 2.07871,6.08152 4.60756,12.00133 7.18733,17.915235 h 7.29356 L 178.51205,54.173675 h -6.90409 l -10.94033,24.783921 h 7.15193 l 1.94731,-4.815162"
           style="font-weight:800;font-size:35.4056px;font-family:Montserrat;-inkscape-font-specification:'Montserrat, Ultra-Bold';fill:#800000;fill-opacity:1"
           id="path3574"
           sodipodi:nodetypes="cccccccc" /><path
           id="path3576"
           style="font-weight:800;font-size:35.4056px;font-family:Montserrat;-inkscape-font-specification:'Montserrat, Ultra-Bold';fill:#354868;fill-opacity:1"
           d="m 191.47055,54.173753 0.0208,5.525518 6.98969,-0.108401 h 12.42738 v -5.41708 z m -0.025,10.907666 0.025,13.876188 h 7.01039 v -8.497138 l 12.37806,-0.0542 0.0368,-5.242161 -12.41491,-0.120719 c 0.11047,0.168021 -7.0353,0.03803 -7.0353,0.03803 z"
           sodipodi:nodetypes="cccccccccccccc" /><path
           style="fill:#800000;fill-opacity:0;stroke:none;stroke-width:1.47223;stroke-dasharray:none;stroke-opacity:1"
           d="m 599.23987,263.76209 19.50024,-48.51677 12.05536,-0.21238 c 9.20957,-0.16225 12.14714,0.0202 12.44419,0.77287 0.21386,0.54189 8.8151,21.85285 19.11387,47.35768 10.29877,25.50483 18.90201,46.98988 19.11832,47.74455 0.36698,1.28039 -0.452,1.3579 -12.24919,1.15931 l -12.64247,-0.21282 -5.25985,-13.52528 c -6.03094,-15.50809 -14.829,-39.7503 -18.02171,-49.65714 -1.19869,-3.71945 -2.37413,-6.76264 -2.6121,-6.76264 -0.23797,0 -6.16639,15.73764 -13.17426,34.97253 l -12.74159,34.97253 -12.51552,0.21217 -12.51552,0.21216 z"
           id="path12548"
           transform="scale(0.27748884,0.25227804)" /></g><text
         xml:space="preserve"
         style="font-style:normal;font-variant:normal;font-weight:800;font-stretch:normal;font-size:33.9596px;font-family:Montserrat;-inkscape-font-specification:'Montserrat, Ultra-Bold';font-variant-ligatures:normal;font-variant-caps:normal;font-variant-numeric:normal;font-variant-east-asian:normal;fill:#354868;fill-opacity:1;stroke-width:0.336922"
         x="35.591461"
         y="105.67934"
         id="text503"
         transform="scale(0.95636325,1.0456278)"><tspan
           sodipodi:role="line"
           id="tspan501"
           style="font-style:normal;font-variant:normal;font-weight:900;font-stretch:normal;font-size:33.9596px;font-family:Montserrat;-inkscape-font-specification:'Montserrat, Heavy';font-variant-ligatures:normal;font-variant-caps:normal;font-variant-numeric:normal;font-variant-east-asian:normal;fill:#354868;fill-opacity:1;stroke-width:0.336922"
           x="35.591461"
           y="105.67934">O</tspan></text></g><text
       xml:space="preserve"
       transform="scale(0.26458333)"
       id="text2782"
       style="font-style:normal;font-variant:normal;font-weight:800;font-stretch:normal;font-size:85.3333px;font-family:Montserrat;-inkscape-font-specification:'Montserrat, Ultra-Bold';font-variant-ligatures:normal;font-variant-caps:normal;font-variant-numeric:normal;font-variant-east-asian:normal;white-space:pre;shape-inside:url(#rect2784);display:inline;fill:#000000;stroke-width:1.90488;stroke-dasharray:none" /></g></svg>
