<?xml version="1.0" encoding="UTF-8" standalone="no"?>
<svg
   width="167.17667mm"
   height="33.203938mm"
   version="1.1"
   viewBox="0 0 167.17667 33.203938"
   xml:space="preserve"
   id="svg767"
   sodipodi:docname="logo_dark.svg"
   inkscape:version="1.2.1 (9c6d41e410, 2022-07-14)"
   xmlns:inkscape="http://www.inkscape.org/namespaces/inkscape"
   xmlns:sodipodi="http://sodipodi.sourceforge.net/DTD/sodipodi-0.dtd"
   xmlns="http://www.w3.org/2000/svg"
   xmlns:svg="http://www.w3.org/2000/svg"><sodipodi:namedview
     id="namedview769"
     pagecolor="#ffffff"
     bordercolor="#000000"
     borderopacity="0.25"
     inkscape:showpageshadow="2"
     inkscape:pageopacity="0.0"
     inkscape:pagecheckerboard="0"
     inkscape:deskcolor="#d1d1d1"
     inkscape:document-units="mm"
     showgrid="false"
     inkscape:zoom="1.4934078"
     inkscape:cx="121.86892"
     inkscape:cy="43.524615"
     inkscape:window-width="1908"
     inkscape:window-height="1031"
     inkscape:window-x="26"
     inkscape:window-y="23"
     inkscape:window-maximized="0"
     inkscape:current-layer="g761" /><defs
     id="defs735"><style
       id="style733">.cls-1{fill-rule:evenodd;}</style></defs><g
     transform="translate(-34.979823,-85.072107)"
     id="g765"><g
       fill="#354868"
       id="g761"><g
         transform="matrix(0.95349,0,0,1.0488,1.0583,28.261)"
         stroke-width="0.41491"
         aria-label="   penVAF"
         id="g755"><g
           fill="#354868"
           id="g743"><path
             d="m 77.677,59.449 c -2.5138,0 -4.3903,0.70811 -5.6649,2.2306 v -1.9119 h -6.4084 v 26.059 h 6.7271 v -8.5682 c 1.31,1.3454 3.1157,2.0181 5.3462,2.0181 5.2046,0 9.4179,-3.8238 9.4179,-9.9136 0,-6.0898 -4.2133,-9.9136 -9.4179,-9.9136 z M 76.2608,73.93 c -2.266,0 -4.0362,-1.6641 -4.0362,-4.5673 0,-2.9033 1.7703,-4.5673 4.0362,-4.5673 2.266,0 4.0362,1.6641 4.0362,4.5673 0,2.9033 -1.7703,4.5673 -4.0362,4.5673 z"
             id="path737"
             style="fill:#212529;fill-opacity:1" /><path
             d="m 109.83,69.398 c 0,-6.3376 -4.6027,-9.949 -10.268,-9.949 -6.0544,0 -10.551,4.107 -10.551,9.8782 0,5.7357 4.4257,9.949 11.259,9.949 3.6468,0 6.3376,-1.0622 8.1787,-3.1157 l -3.5406,-3.6822 c -1.31,1.133 -2.5492,1.6641 -4.4257,1.6641 -2.4784,0 -4.1425,-1.133 -4.7089,-3.0803 h 13.95 c 0.0354,-0.53108 0.10622,-1.1684 0.10622,-1.6641 z M 99.598,64.2288 c 2.0889,0 3.576,1.2746 3.93,3.2927 h -7.86 c 0.38946,-2.0181 1.8411,-3.2927 3.93,-3.2927 z"
             id="path739"
             style="fill:#212529;fill-opacity:1" /><path
             d="m 125.44,59.449 c -2.4076,0 -4.5673,0.81433 -6.0898,2.4076 v -2.0889 h -6.4084 v 19.19 h 6.7271 v -9.2763 c 0,-3.1865 1.6641,-4.5319 3.8238,-4.5319 1.9473,0 3.1511,1.1684 3.1511,3.93 v 9.8782 h 6.7271 v -10.976 c 0,-5.9481 -3.4343,-8.5328 -7.9308,-8.5328 z"
             id="path741"
             style="fill:#212529;fill-opacity:1" /></g><g
           id="g751"><path
             d="m 134.93,54.174 7.9005,18.428 3.4983,-8.3435 -3.8221,-10.084 z m 21.173,0 -10.586,24.784 h 6.9042 l 10.622,-24.784 z"
             fill="#800000"
             id="path745" /><path
             d="m 175.01,61.042 c 2.0787,6.0815 4.6076,12.001 7.1873,17.915 h 7.2936 l -10.976,-24.784 h -6.9041 l -10.94,24.784 h 7.1519 l 1.9473,-4.8152"
             fill="#800000"
             id="path747" /><path
             d="m 191.47,54.174 0.0208,5.5255 6.9897,-0.1084 h 12.427 V 54.174 Z m -0.025,10.908 0.025,13.876 h 7.0104 v -8.4971 l 12.378,-0.0542 0.0368,-5.2422 -12.415,-0.12072 c 0.11047,0.16802 -7.0353,0.03803 -7.0353,0.03803 z"
             fill="#354868"
             id="path749"
             style="fill:#212529;fill-opacity:1" /></g><path
           transform="scale(0.27749,0.25228)"
           d="m 599.24,263.76 19.5,-48.517 12.055,-0.21238 c 9.2096,-0.16225 12.147,0.0202 12.444,0.77287 0.21386,0.54189 8.8151,21.853 19.114,47.358 10.2989,25.505 18.902,46.99 19.118,47.745 0.36698,1.2804 -0.452,1.3579 -12.249,1.1593 l -12.642,-0.21282 -5.2598,-13.525 c -6.0309,-15.508 -14.829,-39.75 -18.022,-49.657 -1.1987,-3.7194 -2.3741,-6.7626 -2.6121,-6.7626 -0.238,0 -6.1664,15.738 -13.174,34.973 l -12.742,34.973 -25.031,0.42433 z"
           fill-opacity="0"
           id="path753" /></g><g
         transform="scale(0.95636,1.0456)"
         stroke-width="0.33692"
         aria-label="O"
         id="g759"><path
           d="m 49.99,106.22 c 7.7428,0 13.414,-5.2298 13.414,-12.429 0,-7.1994 -5.6713,-12.429 -13.414,-12.429 -7.7428,0 -13.414,5.2298 -13.414,12.429 0,7.1994 5.6713,12.429 13.414,12.429 z m 0,-6.4863 c -2.9545,0 -5.3317,-2.2413 -5.3317,-5.9429 0,-3.7016 2.3772,-5.9429 5.3317,-5.9429 2.9545,0 5.3317,2.2413 5.3317,5.9429 0,3.7016 -2.3772,5.9429 -5.3317,5.9429 z"
           id="path757"
           style="fill:#212529;fill-opacity:1" /></g></g><text
       transform="scale(0.26458)"
       fill="#000000"
       font-family="Montserrat"
       font-size="85.333px"
       font-weight="800"
       stroke-width="1.9049"
       style="font-variant-ligatures:normal;font-variant-caps:normal;font-variant-numeric:normal;font-variant-east-asian:normal;white-space:pre;shape-inside:url(#rect2784);display:inline"
       xml:space="preserve"
       id="text763" /></g></svg>
